<mxfile host="app.diagrams.net" agent="Mozilla/5.0 (Windows NT 10.0; Win64; x64) AppleWebKit/537.36 (KHTML, like Gecko) Chrome/137.0.0.0 Safari/537.36" version="27.1.6">
  <diagram name="Cybersecurity Home Lab" id="jCooJbU8dvwji5VAtYhG">
    <mxGraphModel dx="1042" dy="527" grid="1" gridSize="10" guides="1" tooltips="1" connect="1" arrows="1" fold="1" page="1" pageScale="1" pageWidth="850" pageHeight="1100" math="0" shadow="0">
      <root>
        <mxCell id="0" />
        <mxCell id="1" parent="0" />
        <mxCell id="TlL0nuXnlky7H-f3o_7J-1" value="" style="rounded=1;whiteSpace=wrap;html=1;fillColor=#f8f9fa;strokeColor=#dee2e6;strokeWidth=2;" vertex="1" parent="1">
          <mxGeometry x="130" y="136.5" width="1069" height="727" as="geometry" />
        </mxCell>
        <mxCell id="TlL0nuXnlky7H-f3o_7J-2" value="Cybersecurity Home Lab Network Architecture" style="text;html=1;strokeColor=none;fillColor=none;align=center;verticalAlign=middle;whiteSpace=wrap;rounded=0;fontSize=24;fontStyle=1;fontColor=#2c3e50;" vertex="1" parent="1">
          <mxGeometry x="460" y="170" width="469" height="30" as="geometry" />
        </mxCell>
        <mxCell id="TlL0nuXnlky7H-f3o_7J-3" value="Internet" style="ellipse;shape=cloud;whiteSpace=wrap;html=1;fillColor=#ffcccc;strokeColor=#d32f2f;fontStyle=1;" vertex="1" parent="1">
          <mxGeometry x="580" y="210" width="120" height="80" as="geometry" />
        </mxCell>
        <mxCell id="TlL0nuXnlky7H-f3o_7J-4" value="Management VLAN 10&#xa;192.168.10.0/24" style="rounded=1;whiteSpace=wrap;html=1;fillColor=#e1f5fe;strokeColor=#01579b;strokeWidth=2;dashed=1;dashPattern=5 5;" vertex="1" parent="1">
          <mxGeometry x="180" y="180" width="200" height="60" as="geometry" />
        </mxCell>
        <mxCell id="TlL0nuXnlky7H-f3o_7J-5" value="Server VLAN 20&#xa;192.168.20.0/24" style="rounded=1;whiteSpace=wrap;html=1;fillColor=#e8f5e8;strokeColor=#2e7d32;strokeWidth=2;dashed=1;dashPattern=5 5;" vertex="1" parent="1">
          <mxGeometry x="400" y="590" width="200" height="120" as="geometry" />
        </mxCell>
        <mxCell id="TlL0nuXnlky7H-f3o_7J-6" value="Security VLAN 30&#xa;192.168.30.0/24" style="rounded=1;whiteSpace=wrap;html=1;fillColor=#fff3e0;strokeColor=#e65100;strokeWidth=2;dashed=1;dashPattern=5 5;" vertex="1" parent="1">
          <mxGeometry x="160" y="580" width="190" height="140" as="geometry" />
        </mxCell>
        <mxCell id="TlL0nuXnlky7H-f3o_7J-7" value="Attack/Testing VLAN 40&#xa;192.168.40.0/24" style="rounded=1;whiteSpace=wrap;html=1;fillColor=#fce4ec;strokeColor=#ad1457;strokeWidth=2;dashed=1;dashPattern=5 5;" vertex="1" parent="1">
          <mxGeometry x="640" y="590" width="200" height="120" as="geometry" />
        </mxCell>
        <mxCell id="TlL0nuXnlky7H-f3o_7J-8" value="IoT/Isolated VLAN 50&#xa;192.168.50.0/24" style="rounded=1;whiteSpace=wrap;html=1;fillColor=#f3e5f5;strokeColor=#4a148c;strokeWidth=2;dashed=1;dashPattern=5 5;" vertex="1" parent="1">
          <mxGeometry x="880" y="590" width="200" height="120" as="geometry" />
        </mxCell>
        <mxCell id="TlL0nuXnlky7H-f3o_7J-9" value="&lt;div&gt;&lt;span style=&quot;background-color: transparent; color: light-dark(rgb(0, 0, 0), rgb(237, 237, 237));&quot;&gt;Asus RT-AX58U&lt;/span&gt;&lt;/div&gt;192.168.1.1&lt;br&gt;Gateway Router" style="fontColor=#000000;fontStyle=1;verticalAlign=top;align=center;spacingTop=-2;fillColor=#FFFFFF;rounded=1;whiteSpace=wrap;html=1;strokeColor=#d32f2f;strokeWidth=3;shadow=1;" vertex="1" parent="1">
          <mxGeometry x="425" y="270" width="120" height="80" as="geometry" />
        </mxCell>
        <mxCell id="TlL0nuXnlky7H-f3o_7J-10" value="TP-Link SG108E&#xa;192.168.10.2&#xa;Managed Switch" style="fontColor=#000000;fontStyle=1;verticalAlign=top;align=center;spacingTop=-2;fillColor=#FFFFFF;rounded=1;whiteSpace=wrap;html=1;strokeColor=#f57c00;strokeWidth=3;shadow=1;" vertex="1" parent="1">
          <mxGeometry x="200" y="350" width="120" height="80" as="geometry" />
        </mxCell>
        <mxCell id="TlL0nuXnlky7H-f3o_7J-11" value="SOC Desktop&#xa;192.168.30.5&#xa;Security Onion VM&#xa;i9-9900K, 32GB RAM" style="fontColor=#000000;fontStyle=1;verticalAlign=top;align=center;spacingTop=-2;fillColor=#FFFFFF;rounded=1;whiteSpace=wrap;html=1;strokeColor=#e65100;strokeWidth=3;shadow=1;" vertex="1" parent="1">
          <mxGeometry x="180" y="610" width="140" height="80" as="geometry" />
        </mxCell>
        <mxCell id="TlL0nuXnlky7H-f3o_7J-12" value="ThinkCenter&#xa;192.168.30.6&#xa;Jumpbox&#xa;Secure Access" style="fontColor=#000000;fontStyle=1;verticalAlign=top;align=center;spacingTop=-2;fillColor=#FFFFFF;rounded=1;whiteSpace=wrap;html=1;strokeColor=#e65100;strokeWidth=3;shadow=1;" vertex="1" parent="1">
          <mxGeometry x="640" y="355" width="140" height="80" as="geometry" />
        </mxCell>
        <mxCell id="TlL0nuXnlky7H-f3o_7J-13" value="Dell R220 Server&#xa;192.168.20.4&#xa;Linux Server 24.04.2&#xa;MongoDB &amp; Apps" style="fontColor=#000000;fontStyle=1;verticalAlign=top;align=center;spacingTop=-2;fillColor=#FFFFFF;rounded=1;whiteSpace=wrap;html=1;strokeColor=#2e7d32;strokeWidth=3;shadow=1;" vertex="1" parent="1">
          <mxGeometry x="430" y="610" width="140" height="80" as="geometry" />
        </mxCell>
        <mxCell id="TlL0nuXnlky7H-f3o_7J-14" value="Asus TUF Laptop&#xa;192.168.40.3&#xa;Kali Linux VM&#xa;Attack Vector &amp; Dev" style="fontColor=#000000;fontStyle=1;verticalAlign=top;align=center;spacingTop=-2;fillColor=#FFFFFF;rounded=1;whiteSpace=wrap;html=1;strokeColor=#ad1457;strokeWidth=3;shadow=1;" vertex="1" parent="1">
          <mxGeometry x="670" y="610" width="140" height="80" as="geometry" />
        </mxCell>
        <mxCell id="TlL0nuXnlky7H-f3o_7J-15" value="IoT Devices&#xa;192.168.50.x&#xa;CCTV, Tablets&#xa;Arduinos" style="fontColor=#000000;fontStyle=1;verticalAlign=top;align=center;spacingTop=-2;fillColor=#FFFFFF;rounded=1;whiteSpace=wrap;html=1;strokeColor=#4a148c;strokeWidth=3;shadow=1;" vertex="1" parent="1">
          <mxGeometry x="910" y="610" width="140" height="80" as="geometry" />
        </mxCell>
        <mxCell id="TlL0nuXnlky7H-f3o_7J-16" value="" style="endArrow=none;html=1;strokeWidth=3;strokeColor=#666666;" edge="1" parent="1" source="TlL0nuXnlky7H-f3o_7J-3" target="TlL0nuXnlky7H-f3o_7J-9">
          <mxGeometry width="50" height="50" relative="1" as="geometry">
            <mxPoint x="640" y="290" as="sourcePoint" />
            <mxPoint x="640" y="330" as="targetPoint" />
          </mxGeometry>
        </mxCell>
        <mxCell id="TlL0nuXnlky7H-f3o_7J-17" value="" style="endArrow=none;html=1;strokeWidth=3;strokeColor=#666666;" edge="1" parent="1" source="TlL0nuXnlky7H-f3o_7J-9" target="TlL0nuXnlky7H-f3o_7J-10">
          <mxGeometry width="50" height="50" relative="1" as="geometry">
            <mxPoint x="580" y="370" as="sourcePoint" />
            <mxPoint x="330" y="430" as="targetPoint" />
          </mxGeometry>
        </mxCell>
        <mxCell id="TlL0nuXnlky7H-f3o_7J-18" value="" style="endArrow=none;html=1;strokeWidth=2;strokeColor=#e65100;" edge="1" parent="1" source="TlL0nuXnlky7H-f3o_7J-10" target="TlL0nuXnlky7H-f3o_7J-11">
          <mxGeometry width="50" height="50" relative="1" as="geometry">
            <mxPoint x="250" y="510" as="sourcePoint" />
            <mxPoint x="250" y="610" as="targetPoint" />
          </mxGeometry>
        </mxCell>
        <mxCell id="TlL0nuXnlky7H-f3o_7J-19" value="" style="endArrow=none;html=1;strokeWidth=2;strokeColor=#e65100;" edge="1" parent="1" source="TlL0nuXnlky7H-f3o_7J-10" target="TlL0nuXnlky7H-f3o_7J-12">
          <mxGeometry width="50" height="50" relative="1" as="geometry">
            <mxPoint x="270" y="510" as="sourcePoint" />
            <mxPoint x="250" y="710" as="targetPoint" />
          </mxGeometry>
        </mxCell>
        <mxCell id="TlL0nuXnlky7H-f3o_7J-20" value="" style="endArrow=none;html=1;strokeWidth=2;strokeColor=#2e7d32;" edge="1" parent="1" source="TlL0nuXnlky7H-f3o_7J-10" target="TlL0nuXnlky7H-f3o_7J-13">
          <mxGeometry width="50" height="50" relative="1" as="geometry">
            <mxPoint x="330" y="470" as="sourcePoint" />
            <mxPoint x="430" y="610" as="targetPoint" />
          </mxGeometry>
        </mxCell>
        <mxCell id="TlL0nuXnlky7H-f3o_7J-21" value="" style="endArrow=none;html=1;strokeWidth=2;strokeColor=#ad1457;" edge="1" parent="1" source="TlL0nuXnlky7H-f3o_7J-10" target="TlL0nuXnlky7H-f3o_7J-14">
          <mxGeometry width="50" height="50" relative="1" as="geometry">
            <mxPoint x="330" y="470" as="sourcePoint" />
            <mxPoint x="670" y="610" as="targetPoint" />
          </mxGeometry>
        </mxCell>
        <mxCell id="TlL0nuXnlky7H-f3o_7J-22" value="" style="endArrow=none;html=1;strokeWidth=2;strokeColor=#4a148c;" edge="1" parent="1" source="TlL0nuXnlky7H-f3o_7J-10" target="TlL0nuXnlky7H-f3o_7J-15">
          <mxGeometry width="50" height="50" relative="1" as="geometry">
            <mxPoint x="330" y="470" as="sourcePoint" />
            <mxPoint x="910" y="610" as="targetPoint" />
          </mxGeometry>
        </mxCell>
        <mxCell id="TlL0nuXnlky7H-f3o_7J-23" value="" style="rounded=1;whiteSpace=wrap;html=1;fillColor=#ffffff;strokeColor=#cccccc;" vertex="1" parent="1">
          <mxGeometry x="929" y="190" width="250" height="360" as="geometry" />
        </mxCell>
        <mxCell id="TlL0nuXnlky7H-f3o_7J-24" value="VLAN Security Zones" style="text;html=1;strokeColor=none;fillColor=none;align=center;verticalAlign=middle;whiteSpace=wrap;rounded=0;fontSize=16;fontStyle=1;" vertex="1" parent="1">
          <mxGeometry x="955" y="220" width="200" height="30" as="geometry" />
        </mxCell>
        <mxCell id="TlL0nuXnlky7H-f3o_7J-25" value="VLAN 10 - Management&#xa;Network Infrastructure" style="text;html=1;strokeColor=#01579b;fillColor=#e1f5fe;align=left;verticalAlign=middle;whiteSpace=wrap;rounded=1;" vertex="1" parent="1">
          <mxGeometry x="940" y="260" width="230" height="30" as="geometry" />
        </mxCell>
        <mxCell id="TlL0nuXnlky7H-f3o_7J-26" value="VLAN 20 - Server&lt;br&gt;Bioinformatics Web App" style="text;html=1;strokeColor=#2e7d32;fillColor=#e8f5e8;align=left;verticalAlign=middle;whiteSpace=wrap;rounded=1;" vertex="1" parent="1">
          <mxGeometry x="940" y="300" width="230" height="30" as="geometry" />
        </mxCell>
        <mxCell id="TlL0nuXnlky7H-f3o_7J-27" value="VLAN 30 - Security/SOC&#xa;Monitoring &amp; Analysis" style="text;html=1;strokeColor=#e65100;fillColor=#fff3e0;align=left;verticalAlign=middle;whiteSpace=wrap;rounded=1;" vertex="1" parent="1">
          <mxGeometry x="940" y="340" width="230" height="30" as="geometry" />
        </mxCell>
        <mxCell id="TlL0nuXnlky7H-f3o_7J-28" value="VLAN 40 - Attack/Testing&#xa;Penetration Testing" style="text;html=1;strokeColor=#ad1457;fillColor=#fce4ec;align=left;verticalAlign=middle;whiteSpace=wrap;rounded=1;" vertex="1" parent="1">
          <mxGeometry x="940" y="380" width="230" height="30" as="geometry" />
        </mxCell>
        <mxCell id="TlL0nuXnlky7H-f3o_7J-29" value="VLAN 50 - IoT/Isolated&lt;br&gt;Vulnerable Devices" style="text;html=1;strokeColor=#4a148c;fillColor=#f3e5f5;align=left;verticalAlign=middle;whiteSpace=wrap;rounded=1;" vertex="1" parent="1">
          <mxGeometry x="940" y="420" width="230" height="30" as="geometry" />
        </mxCell>
        <mxCell id="TlL0nuXnlky7H-f3o_7J-30" value="Firewall Rules:&#xa;• Block inter-VLAN by default&#xa;• Allow SOC → All (monitoring)&#xa;• Allow Server VLAN → Internet&#xa;• Deny IoT → Internal networks" style="text;html=1;strokeColor=#666666;fillColor=#f5f5f5;align=left;verticalAlign=top;whiteSpace=wrap;rounded=1;" vertex="1" parent="1">
          <mxGeometry x="939" y="460" width="230" height="80" as="geometry" />
        </mxCell>
      </root>
    </mxGraphModel>
  </diagram>
</mxfile>
